# xmcd
#
# Track frame offsets:
#  150
#  30983
#  50244
#  65164
#  76314
#  99270
#  121399
#  151181
#  174175
#  209116
#  232405
#  256480
#  275695
#  304714
#
# Disc length: 4387 seconds
#
# Revision: 2
# Processed by: cddbd v1.5.1PL2 Copyright (c) Steve Scherf et al.
# Submitted via: Collectorz.com Music Collector 6.9
#
DISCID=c711210e
DTITLE=Various Artist - CD 2
DYEAR=1997
DGENRE=Chill out - Lounge
TTITLE0=Praful - Let The Chips Fall
TTITLE1=Julee Cruise - Shine
TTITLE2=Sandboy - Motion Capture
TTITLE3=Mondepulciano - Chocolate Bliss
TTITLE4=Bent - King Wisp
TTITLE5=J-Walk - French Letter
TTITLE6=Lucky Loop - Sambaspass
TTITLE7=James Hardaway - I Don't Wanna Know
TTITLE8=Palyrria - Chillum Reggae
TTITLE9=Suzy - De La Distancia
TTITLE10=Nacho Sotomayor - Alma
TTITLE11=Copoasetic Con Vivi e Selda - Here's To You
TTITLE12=La Taverne Du Lac - Magic Single Barrel (Mo Horizons Restyle)
TTITLE13=Zofka - Tu Ne L'aimes Pas
EXTD=
EXTT0=
EXTT1=
EXTT2=
EXTT3=
EXTT4=
EXTT5=
EXTT6=
EXTT7=
EXTT8=
EXTT9=
EXTT10=
EXTT11=
EXTT12=
EXTT13=
PLAYORDER=
